<svg id="Layer_1" data-name="Layer 1" xmlns="http://www.w3.org/2000/svg" viewBox="0 0 437.83 476.89"><defs><style>.cls-1{fill:#fff;}</style></defs><path d="M172.31,309.47A173.62,173.62,0,0,1,194,257.88c7.69-12.35,16.3-24,27.1-33.82,19.59-17.88,43.08-24,68.86-21.79,31.7,2.77,63.15,7.42,93.89,15.91,26.36,7.28,51.16,18,72.64,35.34,7.58,6.13,14.08,13.21,18.18,22.23,9.4,20.68-1.48,41.23-23.82,45.33-11.4,2.09-22.55.34-33.74-1.48-2.08-.34-4.17-.59-6.2-.87v50.91c9.91.84,18.76,1,27.37,2.45q33.18,5.63,66.16,12.34c7.43,1.53,14.14,5.18,16.59,13.48,1.74,5.87.32,11.39-3.88,15.18a191.89,191.89,0,0,1-21.27,16.36c-9.25,6.21-19.18,11.42-28.38,17.7-12,8.19-13.18,24.27-3,34.7,1.39,1.43,2.84,2.81,4.24,4.24,6.54,6.65,6.73,11,.92,18.15a8.21,8.21,0,0,0-1.84,3.43c-1.06,6.12-3.94,10.87-9.7,13.42,5.46,16.82,11.51,33.21,16,50,3.62,13.58,6.81,27.59,7.54,41.55,1.1,21-11.37,34.67-32.32,37.3-15.34,1.93-30.83,3.67-46.27,3.78-47.48.31-95-.18-142.45-.41-7.5,0-15-.5-22.49-.43-6,.05-9.66-2.26-12.49-7.78-5.53-10.77-12.71-20.74-17.77-31.7-10.14-22-15.17-45.48-17-69.45-2.34-30.55-3.57-61.18-5.15-91.79-1.32-25.52-5.78-50.54-11.33-75.43-3.27-14.65-5.39-29.44-5-44.55.06-2-1.57-4.63-3.19-6.13q-29.86-27.68-60-55c-16.64-15.08-23.43-34-22.13-56,.61-10.27,2.39-20.48,3.87-30.68.72-5,4.63-7.87,9.06-7.34s7.32,4.05,6.73,9.4c-.85,7.77-2.27,15.47-3.21,23.23-2.39,19.68,2.21,36.83,17.57,50.54,17.38,15.53,34.35,31.52,51.52,47.3A31.92,31.92,0,0,0,172.31,309.47Zm222.22,6.43c-1.67-.37-2.93-.71-4.22-.93l-120-20.83c-5.6-1-8.33-4.56-7.49-9.69.7-4.32,4.84-7,9.84-6.14,46.73,8.05,93.43,16.25,140.19,24.15,10.13,1.71,20.44,3.38,30.66,3.35,16.56,0,23.08-12.44,14.75-26.56a34.27,34.27,0,0,0-3.78-5.25c-11.17-12.64-25.54-20.73-40.48-27.79-23.34-11-48.24-17-73.58-21.11-21.5-3.49-42.91-8.09-64.91-7.09-16,.72-30.5,5.78-42.23,16.86-24.17,22.85-39.5,50.74-46.27,83.32-.69,3.32.44,5.42,2.87,7.77,10.06,9.71,20.43,19.2,29.51,29.78,6.76,7.88,12,17.14,17.35,26.11,2.81,4.69,1.08,9.59-2.94,11.62-4.35,2.2-8.8.37-11.37-4.68-7.66-15.07-18.69-27.47-30.83-39-1.61-1.53-3.29-3-4.94-4.47l-1.15.69c1.3,8,2.12,16.13,4,24a538.69,538.69,0,0,1,13.59,112.81c.52,27.3,1.74,54.62,6.82,81.57,4.63,24.6,12.63,47.87,26.9,68.72,1.77,2.59,3.62,4,6.88,3.85,5.16-.15,10.33.21,15.49.24,47.49.24,95,.69,142.47.55,13.8,0,27.62-1.46,41.37-2.84,18.1-1.83,24.18-9.43,22.89-27.52a26.59,26.59,0,0,0-.73-5.43C459,580.4,453,558.75,446.35,537.35c-3.39-10.87-6.83-21.78-13.76-31.32-2.86-3.94-3.51-9.56-4.84-14.49-.95-3.51-1-7.29-2.11-10.72-4.35-13.09-9.25-26-13.46-39.13C399.11,401,390.43,359.66,394.53,315.9Zm110.79,87.38c-.13-.66-.26-1.31-.38-2-29.23-8.86-59.19-13.4-90.39-15.06,4.46,24.65,11.5,47.9,20.08,71.76,8-12.32,18.1-20.92,29.42-28.08,10.53-6.66,21.33-12.91,31.89-19.52C499.26,408.33,502.2,405.67,505.32,403.28Z" transform="translate(-83.92 -176.94)"/><path class="cls-1" d="M394.53,315.9c-4.1,43.76,4.58,85.11,17.65,125.79,4.21,13.13,9.11,26,13.46,39.13,1.14,3.43,1.16,7.21,2.11,10.72,1.33,4.93,2,10.55,4.84,14.49,6.93,9.54,10.37,20.45,13.76,31.32,6.69,21.4,12.62,43,18.79,64.62a26.59,26.59,0,0,1,.73,5.43c1.29,18.09-4.79,25.69-22.89,27.52-13.75,1.38-27.57,2.79-41.37,2.84-47.49.14-95-.31-142.47-.55-5.16,0-10.33-.39-15.49-.24-3.26.1-5.11-1.26-6.88-3.85C222.5,612.27,214.5,589,209.87,564.4c-5.08-26.95-6.3-54.27-6.82-81.57A538.69,538.69,0,0,0,189.46,370c-1.85-7.88-2.67-16-4-24l1.15-.69c1.65,1.49,3.33,2.94,4.94,4.47,12.14,11.53,23.17,23.93,30.83,39,2.57,5,7,6.88,11.37,4.68,4-2,5.75-6.93,2.94-11.62-5.36-9-10.59-18.23-17.35-26.11-9.08-10.58-19.45-20.07-29.51-29.78-2.43-2.35-3.56-4.45-2.87-7.77,6.77-32.58,22.1-60.47,46.27-83.32,11.73-11.08,26.2-16.14,42.23-16.86,22-1,43.41,3.6,64.91,7.09,25.34,4.11,50.24,10.07,73.58,21.11,14.94,7.06,29.31,15.15,40.48,27.79a34.27,34.27,0,0,1,3.78,5.25c8.33,14.12,1.81,26.52-14.75,26.56-10.22,0-20.53-1.64-30.66-3.35-46.76-7.9-93.46-16.1-140.19-24.15-5-.86-9.14,1.82-9.84,6.14-.84,5.13,1.89,8.72,7.49,9.69l120,20.83C391.6,315.19,392.86,315.53,394.53,315.9Zm41.58-37.56c-4.25,0-8.25,4-8.3,8.32a8.37,8.37,0,0,0,8.47,8.57,8.63,8.63,0,0,0,8.45-8.21C444.91,282.71,440.62,278.38,436.11,278.34ZM316.4,255.92a8.62,8.62,0,0,0-8.89-8.2,8.39,8.39,0,0,0-7.92,8.57,8.41,8.41,0,1,0,16.81-.37Z" transform="translate(-83.92 -176.94)"/><path d="M436.11,278.34c4.51,0,8.8,4.37,8.62,8.68a8.63,8.63,0,0,1-8.45,8.21,8.37,8.37,0,0,1-8.47-8.57C427.86,282.3,431.86,278.29,436.11,278.34Z" transform="translate(-83.92 -176.94)"/><path d="M316.4,255.92a8.41,8.41,0,1,1-16.81.37,8.39,8.39,0,0,1,7.92-8.57A8.62,8.62,0,0,1,316.4,255.92Z" transform="translate(-83.92 -176.94)"/></svg>