<svg id="Layer_1" data-name="Layer 1" xmlns="http://www.w3.org/2000/svg" viewBox="0 0 289.4 386.17"><defs><style>.cls-1{fill:#fff;}</style></defs><path class="cls-1" d="M436.7,584.54h-232c-1.07-3.91-2.48-7.77-3.16-11.75Q194,528.08,186.7,483.33q-2.74-17-4.8-34c-2.85-23.27-6.12-46.5-8-69.85-1.05-13,.11-26.29.69-39.43,1-23.24,8.89-44.33,20.25-64.42,13.17-23.29,34.08-38.05,56.5-50.56,23.9-13.33,50-16.82,77.34-13.82,25,2.75,47.31,11.31,65.6,28.28,14.16,13.15,25.15,29.13,33.46,46.77,1.48,3.15.14,5.09-2.32,6.69-7.53,4.87-15.05,9.78-22.67,14.52-12.16,7.56-24.47,14.48-39.34,15.61-17.18,1.3-34.21.66-51-3-9.13-2-18.7-4.09-26.73-8.54-12.74-7-24.51-15.89-36.35-24.44-4.5-3.24-6,.38-8.07,2.42-2.38,2.38-1.55,4.68,1.3,6.53,2.21,1.45,4.12,3.36,6.19,5,6.19,5,11.78,11.31,18.74,14.83,12.79,6.46,25.43,13.24,40.29,15.29,17.33,2.39,34.54,5.26,52.06,4.18,7.24-.45,14.65-1.28,21.51-3.44,5.91-1.86,11.09-5.94,16.68-8.87C402,321,406,319.23,411,316.86c1.42,7.79,3,14.53,3.81,21.35,3.13,25.07,6.51,50.12,8.86,75.27,1.82,19.37,2,38.89,3.37,58.31,1.73,24.74,3.86,49.45,5.95,74.17C434.06,558.83,435.45,571.68,436.7,584.54ZM299.23,506.9c-4.57,3.85-4.62,8.38-1.65,12.63a147.51,147.51,0,0,0,11,13.35,62.34,62.34,0,0,0,8.2,8c3.66,2.83,7.35,1.08,7.69-3.52a11.56,11.56,0,0,0-1.11-6.23c-2.36-4.22-1.94-7.81,1-11.45,1-1.26,1.45-3,2.32-4.4,5.89-9.6,11.29-19.58,17.9-28.66,6.83-9.36,15-17.74,22.31-26.74,5.46-6.7,10.77-13.56,15.68-20.66a9.42,9.42,0,0,0,.8-7.28c-.41-1.31-3.6-2.59-5.37-2.39a9.65,9.65,0,0,0-5.72,3.35c-8.1,9.92-16.18,19.87-23.81,30.15-8.12,10.93-15.45,22.45-23.63,33.34-6.63,8.83-7.12,13-17.18,2-.78-.86-1.65-1.66-2.38-2.56-16.57-20.61-33.08-41.25-49.73-61.8-2-2.4-4.31-5-7-6.08-1.84-.76-5,.39-6.89,1.7-.85.6-.75,4.27.23,5.5,13.56,17,27.38,33.86,41.07,50.79C288.47,492.67,296.28,497.64,299.23,506.9Zm4.22-256c-.57-3-1.21-6.32-5.68-6.42-3.61-.09-7,3-6.7,6.57s2.24,6.28,6.26,6.49C301.62,257.74,303.16,255.1,303.45,250.88Zm64.79-11.06c-5.19-.07-7.92,2.65-7.76,6.59s2.84,5.8,6.49,6.08c3.13.23,6.84-3.34,6.36-6.33C372.77,242.72,371,240,368.24,239.82Z" transform="translate(-161.3 -198.37)"/><path d="M436.7,584.54c-1.25-12.86-2.64-25.71-3.74-38.58-2.09-24.72-4.22-49.43-5.95-74.17-1.37-19.42-1.55-38.94-3.37-58.31-2.35-25.15-5.73-50.2-8.86-75.27-.85-6.82-2.39-13.56-3.81-21.35-5,2.37-9,4.14-12.91,6.19-5.59,2.93-10.77,7-16.68,8.87-6.86,2.16-14.27,3-21.51,3.44-17.52,1.08-34.73-1.79-52.06-4.18-14.86-2.05-27.5-8.83-40.29-15.29-7-3.52-12.55-9.79-18.74-14.83-2.07-1.67-4-3.58-6.19-5-2.85-1.85-3.68-4.15-1.3-6.53,2-2,3.57-5.66,8.07-2.42,11.84,8.55,23.61,17.39,36.35,24.44,8,4.45,17.6,6.52,26.73,8.54,16.76,3.7,33.79,4.34,51,3,14.87-1.13,27.18-8.05,39.34-15.61,7.62-4.74,15.14-9.65,22.67-14.52,2.46-1.6,3.8-3.54,2.32-6.69-8.31-17.64-19.3-33.62-33.46-46.77-18.29-17-40.6-25.53-65.6-28.28-27.34-3-53.44.49-77.34,13.82-22.42,12.51-43.33,27.27-56.5,50.56C183.48,295.7,175.6,316.79,174.59,340c-.58,13.14-1.74,26.39-.69,39.43,1.88,23.35,5.15,46.58,8,69.85q2.08,17,4.8,34,7.25,44.76,14.84,89.46c.68,4,2.09,7.84,3.16,11.75h-13c-3.08-16.8-6.39-33.56-9.2-50.41-3.22-19.36-6-38.78-8.95-58.18-2.88-18.93-6.13-37.81-8.45-56.81-1.73-14.2-2.59-28.52-3.22-42.82-.5-11.42-1.1-23,.2-34.3,2.29-19.94,5.75-39.83,14.78-58.09a146.83,146.83,0,0,1,31.85-43,178.05,178.05,0,0,1,59.52-36.69c13.21-4.89,28.44-5.88,42.75-5.85,20.37,0,40.91,2,59.6,11.58,26.71,13.66,46.23,34.87,61.62,60.17a167.87,167.87,0,0,1,8.65,16.76c2.47,5.35,1.64,7.37-3.17,10.79s-9.91,6.74-14.35,10.69a8.58,8.58,0,0,0-2.17,6.87c3.66,18.69,8.12,37.24,11.43,56,1.64,9.28,1.37,18.9,2,28.37q2.88,46.26,5.77,92.51c.71,11.45.95,22.95,2.31,34.32,2.32,19.43,5.34,38.76,8.07,58.13Z" transform="translate(-161.3 -198.37)"/><path d="M299.23,506.9c-3-9.26-10.76-14.23-16.24-21C269.3,469,255.48,452.13,241.92,435.1c-1-1.23-1.08-4.9-.23-5.5,1.87-1.31,5.05-2.46,6.89-1.7,2.73,1.12,5.09,3.68,7,6.08,16.65,20.55,33.16,41.19,49.73,61.8.73.9,1.6,1.7,2.38,2.56,10.06,11,10.55,6.85,17.18-2,8.18-10.89,15.51-22.41,23.63-33.34,7.63-10.28,15.71-20.23,23.81-30.15a9.65,9.65,0,0,1,5.72-3.35c1.77-.2,5,1.08,5.37,2.39a9.42,9.42,0,0,1-.8,7.28c-4.91,7.1-10.22,14-15.68,20.66-7.34,9-15.48,17.38-22.31,26.74-6.61,9.08-12,19.06-17.9,28.66-.87,1.41-1.3,3.14-2.32,4.4-3,3.64-3.39,7.23-1,11.45a11.56,11.56,0,0,1,1.11,6.23c-.34,4.6-4,6.35-7.69,3.52a62.34,62.34,0,0,1-8.2-8,147.51,147.51,0,0,1-11-13.35C294.61,515.28,294.66,510.75,299.23,506.9Z" transform="translate(-161.3 -198.37)"/><path d="M303.45,250.88c-.29,4.22-1.83,6.86-6.12,6.64-4-.21-5.95-2.85-6.26-6.49s3.09-6.66,6.7-6.57C302.24,244.56,302.88,247.88,303.45,250.88Z" transform="translate(-161.3 -198.37)"/><path d="M368.24,239.82c2.77.13,4.53,2.9,5.09,6.34.48,3-3.23,6.56-6.36,6.33-3.65-.28-6.33-2-6.49-6.08S363.05,239.75,368.24,239.82Z" transform="translate(-161.3 -198.37)"/></svg>