<svg id="Layer_1" data-name="Layer 1" xmlns="http://www.w3.org/2000/svg" viewBox="0 0 455.28 502.91"><path d="M112.12,646.62H101.56a57.87,57.87,0,0,1-.52-5.82c.13-20.18-.25-40.38.68-60.53.63-13.7,2.63-27.39,4.9-40.94,1.88-11.27,3.82-22.82,7.95-33.38,5.32-13.6,4.38-28.39,9.9-41.83,2.34-5.71,2.52-12.32,4.92-18q10.34-24.48,21.77-48.47c4.36-9.14,10.1-17.62,14.5-26.74,5.43-11.26,14.27-19.27,23.61-27,2.79-2.29,5.69-4.49,8.27-7a5.25,5.25,0,0,0,1.27-3.85c-2.49-22.45-5.11-44.88-7.71-67.32a2.23,2.23,0,0,1,0-.36c.28-7.42-2.38-12.65-10-15-1.75-.55-3.33-3.18-4-5.19-2.6-7.28-5.92-14-11.76-19.27-1.59-1.43-2.45-3.25-.68-5s3.66-1.11,5.16.36a91.13,91.13,0,0,1,7.18,7.66c1.52,1.87,2.74,2,4.45.42a47.65,47.65,0,0,1,5-4.23c3.45-2.47,7.18-2.58,11-.76,2,1,3.55,1.1,3.67-1.79.25-5.91.64-11.82.72-17.73a51.82,51.82,0,0,0-.8-8.6c-.34-2.25-.38-4.35,2.23-4.94a3.62,3.62,0,0,1,4.57,3.08,38.75,38.75,0,0,1,.95,8.22c-.19,10.27-.59,20.53-.91,30.8,0,.6-.26,1.38,0,1.78,3.34,4.76.68,9-1,13.35-.31.77-.52,1.9-1.1,2.18-3.64,1.77-2.89,4.79-2.56,7.81,2.31,21.49,4.56,43,6.92,64.47.16,1.44,1.08,2.8,1.64,4.2,1.24-.62,2.51-1.19,3.72-1.87,7.31-4.14,14.44-8.68,22-12.37,7.79-3.81,15.88-7.06,24-10.1,13-4.86,25.91-10.16,39.27-13.77,14.75-4,29.23-9,44.36-11.84A174.52,174.52,0,0,1,370,274.63c2.74-.12,5.44-.93,8.17-1.36a47,47,0,0,1,7.14-.94c8.82,0,17.66-.15,26.47.29a96.06,96.06,0,0,1,29.64,6.16c4.56,1.74,9.6,2.22,14.35,3.49,5.34,1.43,10.6,3.16,15.92,4.67,3.31.94,5.64-.66,5.52-4.16-.46-12.78-1.18-25.56-1.73-38.35-.73-17-1.5-34-2-51-.14-4.49-2.23-7-6.68-6.5s-8.57-3.89-7.81-8.63a10.78,10.78,0,0,1,1.31-4.12c2.68-4.11,1.63-7.72-.91-11.38-2.76-4-5.36-8-8.05-12.05-1.37-2.05-3.13-4.37-.39-6.3s4.55.28,5.95,2.34c3.19,4.68,6.11,9.57,9.44,14.15a7.2,7.2,0,0,0,4.47,2.57c3.55.47,7.22.07,10.77.5,2.67.32,3.49-.77,3.77-3.06.42-3.47.94-6.93,1.4-10.4.28-2.17.83-4.27,3.54-4.17,2.88.11,3.53,2.31,3.31,4.65-.7,7.21-1.6,14.4-2.32,21.6-.32,3.12-.17,6.29-.64,9.38a54.83,54.83,0,0,1-2.07,7.22c-.79,2.7-2.29,5.42-2.26,8.12.36,30.56.94,61.13,1.56,91.69,0,1.21.8,3,1.75,3.48,4.41,2.19,9.15,3.76,13.53,6,11.89,6.11,24.11,11.72,33.85,21.27a52.11,52.11,0,0,1,14.22,25.15,23.68,23.68,0,0,0,2.27,6.08c5.67,9.88,2.12,16.12-4.58,23a39.21,39.21,0,0,1-24.72,11.68c-13.82,1.36-27.69,2.21-41.49,3.64-5.73.59-11.33,2.35-17,3.15-6.32.89-12.71,1.33-19.07,1.91-1.56.14-3.15,0-4.71.09-3.27.25-3.83,1.44-2.89,4.56,2.82,9.35,5.32,18.79,8.23,28.1,3,9.76,6.14,19.53,9.74,29.09,4.86,12.91,9.06,25.94,11.07,39.65.85,5.83,2.57,11.52,3.64,17.33q7.24,39.32,14.29,78.68c.74,4.15.81,8.41,1.16,12.62,1,11.92,2,23.83,2.95,35.75.16,2,0,4.06,0,6.32H477.75c-.28-4-.44-8-.85-11.94-2.12-20.05-4-40.12-6.55-60.13-1.55-12.44-3.74-24.82-6.12-37.14-1.41-7.32-3.8-14.44-5.66-21.68-.54-2.1-.71-4.28-1.14-6.41-1.52-7.55-2.82-15.15-4.68-22.62q-3-12.06-6.88-23.89c-4-12.25-8.44-24.36-12.48-36.6-2.63-8-4.85-16.14-7.33-24.19-1.43-4.66-2.29-4.87-7.15-4.19-5.37.76-10.81,1.15-16.23,1.47-20.37,1.2-40.78,2-61.12,3.55-11.78.9-23.47,3-35.21,4.52a44.28,44.28,0,0,1-6.52.14c-4-.08-7.26-2.56-7.71-5.79-.37-2.59,2.59-6.4,6.07-7.2a49.45,49.45,0,0,1,7.9-.84c18.2-1.19,36.42-2.11,54.59-3.62,10.56-.88,21-2.73,31.57-4.05,3.59-.45,7.21-.81,10.83-.9,14-.31,27.88-2.33,41.77-4.23,15.29-2.09,30.75-3,46.09-4.72q20.18-2.26,40.24-5.28c8.55-1.3,13-10.25,9.82-19-5.41-14.73-13.54-27.09-28.58-33.84-9.32-4.18-18.47-8.81-27.48-13.62-8.44-4.51-18-4.86-26.85-7.83-11.65-3.9-23.67-6.72-35.57-9.83a52.69,52.69,0,0,0-11.36-2c-8.81-.33-17.65-.43-26.45-.08-3.91.15-7.75,1.64-11.63,2.5a34.25,34.25,0,0,1-5,.94,202.45,202.45,0,0,0-46.57,8.36c-11.76,3.58-23.69,6.46-35.08,11.31-7.07,3-14.75,4.56-22,7.3-14.9,5.66-29.62,11.77-43,20.69a34,34,0,0,0-7.26,5.93,8.89,8.89,0,0,0-1.66,6c1.06,11.18,2.11,22.39,3.78,33.49,2.57,17.08,5.81,34.06,8.44,51.13,1.69,11,2.94,22,4.13,33.06a47.17,47.17,0,0,1-6.18,28.92,6.78,6.78,0,0,1-1.62,2.38c-1.1.72-3,1.77-3.62,1.34-1-.71-2-2.77-1.68-3.78,5.25-15.17,3.61-30.61,1.75-45.94-3.41-28.06-7.25-56.07-11-84.08A76.5,76.5,0,0,0,204,353.63c-1.21-4.32-2.83-5-5.91-1.8-6.07,6.21-12.77,12.11-17.48,19.28a365.52,365.52,0,0,0-21,37.07c-5.11,10.22-8.86,21.13-13.28,31.71-.74,1.78-2,3.35-2.72,5.12-2.11,4.83-4.85,9.55-6,14.62-2.78,12.46-4.67,25.12-7.18,37.65-.75,3.74-2.38,7.3-3.57,11-.79,2.4-2,4.8-2.16,7.25-.51,8.61-3.43,16.5-6.5,24.39a5.79,5.79,0,0,0-.4,1.39c-1.75,19.22-4,38.41-5.09,57.67-.81,13.86-.17,27.79-.21,41.69C112.42,642.53,112.24,644.44,112.12,646.62Z" transform="translate(-101.04 -143.71)"/><path d="M490.26,336.81c.05,4.06-2.26,6.66-5.92,6.69-3.19,0-5.66-2.82-5.68-6.57,0-3.57,2.23-6,5.61-6.15C488,330.66,490.22,332.89,490.26,336.81Z" transform="translate(-101.04 -143.71)"/><path d="M390.83,352c.11,3-3,5.95-6.44,6s-6.45-2.42-6.65-5.35,2.9-5.94,6.36-6.05C387.24,346.55,390.73,349.33,390.83,352Z" transform="translate(-101.04 -143.71)"/></svg>