<svg id="Layer_1" data-name="Layer 1" xmlns="http://www.w3.org/2000/svg" viewBox="0 0 492.95 551.08"><defs><style>.cls-1{fill:#fff;}</style></defs><path class="cls-1" d="M492.55,693.17h-413c.46-7.64.53-15.33,1.44-22.91,4.35-36.52,7.93-73.16,13.68-109.46q11-69.72,25.14-138.94c8-39.29,18.9-77.87,34.68-114.91,19.73-46.35,50-83.58,94.42-108.18,57-31.62,118.4-40.88,182.57-32.2,26.22,3.55,50.61,12.73,71.68,29.37,11,8.65,20.6,18.5,26.05,31.67,4.6,11.14,1.73,20.32-9,25.66a121.19,121.19,0,0,1-23.77,8.8c-36.47,9.43-73.74,12.8-111.28,13.5-31.85.6-63.63-.54-95-6.54-9.95-1.9-19.73-4.68-29.61-7-4.66-1.09-8.62.16-11.38,4.2-2.49,3.65-2.82,7.86-.2,11.22a16.73,16.73,0,0,0,8,5.31c25.14,7.53,50.93,11.35,77.1,12.93,34.82,2.09,69.6,1.75,104.27-2.21,16-1.82,31.88-4.33,48.06-6.56.09.64.27,1.43.31,2.22,2.51,47.9,6.71,95.78,7.14,143.69.72,80.79-.95,161.6-1.57,242.4C492.2,681.22,492.44,687.2,492.55,693.17Zm-219-275.82c-.41,1-.61,1.62-.92,2.18-15,27.41-29.75,55-45.33,82.13-6.18,10.74-14,20.6-21.69,30.4-3.91,5-6.4,5-10.66.26-5-5.51-10-11.35-13.38-17.9C170,491.75,159.26,468.7,148.21,445.8c-3.21-6.64-8.73-9.06-14.6-6.39-5.69,2.59-7.69,8.73-4.67,15.27,8.44,18.27,16.74,36.6,25.57,54.68,6.58,13.46,13.71,26.75,24.61,37.36,7.65,7.45,16.41,12.79,27.82,9.2,9.2-2.9,15.92-9.38,20.9-17.1q19.6-30.37,38.11-61.47c7.54-12.67,14.1-25.92,21.24-39.17,1.43,1.2,2.64,2.32,4,3.3,6.32,4.74,13.12,8.41,21.25,5.54,8.59-3,13.31-10.32,17-18,1.6-3.37.07-7-3.51-8.93s-7.18-1.4-9.92,1.72a82.84,82.84,0,0,0-5.61,7.64c-2,2.93-4.35,3.09-7.21,1.16-12.66-8.52-12.1-20-2-31.28,4.09-4.54,9-3.94,14.26-2.12,4.89,1.7,5.13,5.55,5.18,9.67a12.17,12.17,0,0,0,.16,2.49c.86,3.85,4.71,7,8.31,6.54,4.29-.57,7.26-3.11,7.38-7.5.34-12.41-2.73-21.57-16.14-26.09-5.51-1.86-11.53-2.21-17.61-3.29-1.64-8.85,1.13-17.64,3.2-26.52,1.15-5-1.58-9.26-6.27-10.12-3.9-.72-8.12,2-9.09,6.69-2,9.87-3.61,19.83-5.38,29.75-.46-5.47-.23-11.09-.57-16.69-.14-2.3-.86-5.47-2.46-6.58a11.61,11.61,0,0,0-8.14-1.68c-3.82.81-5.39,4.4-5.14,8.18.61,9.69,1.51,19.37,2.29,29.06a39.67,39.67,0,0,0-2.8-7.26c-2.31-5-6.56-7-10.87-5.16-4.51,1.9-5.93,6.48-3.7,11.76C258.24,401,263.66,410.81,273.52,417.35Zm6-201.53a11.29,11.29,0,1,0,22.58-.13,11.29,11.29,0,1,0-22.58.13Zm198.16,11.65a11.21,11.21,0,1,0-11.4-11.18A11.06,11.06,0,0,0,477.63,227.47Z" transform="translate(-59.53 -142.09)"/><path d="M492.55,693.17c-.11-6-.35-11.95-.3-17.92.62-80.8,2.29-161.61,1.57-242.4-.43-47.91-4.63-95.79-7.14-143.69,0-.79-.22-1.58-.31-2.22-16.18,2.23-32.08,4.74-48.06,6.56-34.67,4-69.45,4.3-104.27,2.21-26.17-1.58-52-5.4-77.1-12.93a16.73,16.73,0,0,1-8-5.31c-2.62-3.36-2.29-7.57.2-11.22,2.76-4,6.72-5.29,11.38-4.2,9.88,2.3,19.66,5.08,29.61,7,31.39,6,63.17,7.14,95,6.54,37.54-.7,74.81-4.07,111.28-13.5a121.19,121.19,0,0,0,23.77-8.8c10.72-5.34,13.59-14.52,9-25.66-5.45-13.17-15.08-23-26.05-31.67-21.07-16.64-45.46-25.82-71.68-29.37-64.17-8.68-125.52.58-182.57,32.2-44.38,24.6-74.69,61.83-94.42,108.18-15.78,37-26.7,75.62-34.68,114.91Q105.77,491,94.67,560.8C88.92,597.1,85.34,633.74,81,670.26c-.91,7.58-1,15.27-1.44,22.91h-20c.17-9.44-.45-19,.65-28.29C64.69,626.54,69,588.16,74.68,550c10.88-73.08,23.81-145.79,47-216.21,12-36.42,27.76-71,52.87-100.58,33.85-39.84,76.85-65.15,126.92-78.89,37.9-10.4,76.5-14.52,115.71-11,38.38,3.47,74.15,14.25,104,39.95,13.29,11.43,24.52,24.55,29.49,41.86,5.31,18.52-1,35.25-17.55,45.1-6.8,4-14.39,6.82-21.81,9.68-2.85,1.1-3.84,2.21-3.63,5.26,1.84,25.91,4.25,51.8,5.1,77.75,1.48,45.78,2.73,91.59,2.7,137.39,0,61.47-1.37,122.94-2.18,184.41,0,2.81-.47,5.62-.72,8.43Z" transform="translate(-59.53 -142.09)"/><path d="M273.52,417.35c-9.86-6.54-15.28-16.39-19.74-26.93-2.23-5.28-.81-9.86,3.7-11.76,4.31-1.82,8.56.19,10.87,5.16a39.67,39.67,0,0,1,2.8,7.26c-.78-9.69-1.68-19.37-2.29-29.06-.25-3.78,1.32-7.37,5.14-8.18a11.61,11.61,0,0,1,8.14,1.68c1.6,1.11,2.32,4.28,2.46,6.58.34,5.6.11,11.22.57,16.69,1.77-9.92,3.35-19.88,5.38-29.75,1-4.69,5.19-7.41,9.09-6.69,4.69.86,7.42,5.15,6.27,10.12-2.07,8.88-4.84,17.67-3.2,26.52,6.08,1.08,12.1,1.43,17.61,3.29,13.41,4.52,16.48,13.68,16.14,26.09-.12,4.39-3.09,6.93-7.38,7.5-3.6.48-7.45-2.69-8.31-6.54a12.17,12.17,0,0,1-.16-2.49c-.05-4.12-.29-8-5.18-9.67-5.23-1.82-10.17-2.42-14.26,2.12-10.14,11.25-10.7,22.76,2,31.28,2.86,1.93,5.17,1.77,7.21-1.16a82.84,82.84,0,0,1,5.61-7.64c2.74-3.12,6.25-3.72,9.92-1.72s5.11,5.56,3.51,8.93c-3.67,7.72-8.39,15-17,18-8.13,2.87-14.93-.8-21.25-5.54-1.32-1-2.53-2.1-4-3.3-7.14,13.25-13.7,26.5-21.24,39.17q-18.49,31.08-38.11,61.47c-5,7.72-11.7,14.2-20.9,17.1-11.41,3.59-20.17-1.75-27.82-9.2-10.9-10.61-18-23.9-24.61-37.36-8.83-18.08-17.13-36.41-25.57-54.68-3-6.54-1-12.68,4.67-15.27,5.87-2.67,11.39-.25,14.6,6.39,11,22.9,21.82,45.95,33.33,68.62,3.33,6.55,8.38,12.39,13.38,17.9,4.26,4.7,6.75,4.72,10.66-.26,7.68-9.8,15.51-19.66,21.69-30.4,15.58-27.11,30.29-54.72,45.33-82.13C272.91,419,273.11,418.34,273.52,417.35Z" transform="translate(-59.53 -142.09)"/><path d="M279.47,215.82a11.29,11.29,0,1,1,22.58-.13,11.29,11.29,0,1,1-22.58.13Z" transform="translate(-59.53 -142.09)"/><path d="M477.63,227.47a11.21,11.21,0,1,1,11.06-11.53A11,11,0,0,1,477.63,227.47Z" transform="translate(-59.53 -142.09)"/></svg>