<svg id="Layer_1" data-name="Layer 1" xmlns="http://www.w3.org/2000/svg" viewBox="0 0 430.33 432.8"><defs><style>.cls-1{fill:#fff;}</style></defs><path class="cls-1" d="M507,671.13H160c1.19-9.22,2.35-18.45,3.56-27.67,2.51-19,5.34-37.85,7.46-56.84,1.83-16.37,2.07-33,4.42-49.23,3.35-23.17,8.15-46.12,12-69.22,3.67-21.94,11.36-42.68,18.19-63.69,4.63-14.22,9.39-28.39,14-42.6,1.41-4.31,3.92-5.92,8.67-5.13,5.56.93,11.27.91,16.91,1.37q28.36,2.31,56.73,4.7c11.45,1,22.88,2.11,34.33,3,4.67.37,7.6-2,8-6.3.42-4.43-1.8-6.88-6.08-7.64a27.09,27.09,0,0,0-2.93-.58c-25.08-1.74-50.17-3.29-75.24-5.22-17.91-1.38-35.81-3-53.65-5-18-2-35.89-4.9-53.86-7.08-10.4-1.27-20.89-1.8-31.32-2.88-8.79-.91-12.92-6.79-11-15.41.68-3.07,1.95-6,2.6-9.09,1.13-5.34,3.64-9.29,8.73-11.89s9.86-6.19,14.86-9.18c15.84-9.48,31.53-19.23,50-23.05,10.23-2.11,20.6-4.13,30.4-7.61s19.55-5.61,29.79-4.53c34.15,3.6,67.79,10.05,100.26,21.32,15.68,5.44,30.89,12.34,46,19.34,24,11.13,46.7,23.09,60.73,48.09,11.72,20.9,19.6,43.22,29.43,64.79,7.71,16.93,10.23,35.69,15.54,53.44,10.86,36.27,16.49,73,15.16,110.74-.88,24.76-3.31,49.47-5,74.21C508.11,651.91,507.59,661.52,507,671.13ZM288.87,569c.72,4.87,1.23,9.85,2.24,14.72,1.84,8.8,9.47,17.81,15.87,18.21,7.47.48,15.2-.87,22.43.54,9,1.77,13.54-5.26,20.24-7.9a27.6,27.6,0,0,0,5.47-2.38c1.86-1.26,3.95-2.73,4.95-4.63,5-9.59.93-19.94-9.14-24-3.38-1.36-7-2.45-10-4.34-4.66-2.84-4.58-6.36.15-9.05a169.49,169.49,0,0,1,18.16-9.38c32.67-13.67,65.48-27,98.13-40.71a87,87,0,0,0,16-9c1.67-1.17,2.82-4.79,2.31-6.83-.42-1.7-3.49-3.6-5.58-3.85a18.37,18.37,0,0,0-9.19,1.23C418.4,500.19,376,519.07,333.47,537.55c-5,2.16-10.79,2.5-16.27,3.37-3,.49-6.41-.34-9.25.6-7.89,2.63-14.3.65-20.16-4.8a52,52,0,0,0-8.89-7.19q-19.59-11.41-39.51-22.25a130.56,130.56,0,0,0-16.83-7.37,6.09,6.09,0,0,0-8.31,4.24c-.55,2,1.1,5.22,2.73,7,2,2.13,4.81,3.58,7.5,4.83,22.29,10.37,42.8,23.63,62.59,38.09,3.34,2.44,5.51,4.67,2.77,9C288.88,564.61,289.17,566.92,288.87,569ZM257.1,303.09a7.87,7.87,0,0,0-8.14,8.15c0,5.21,2.81,8.2,7.83,8.27,4.8.07,8.06-3.13,8.21-8.05A7.86,7.86,0,0,0,257.1,303.09ZM156,297.16c.05,4,4,8.6,7.53,8.7,4.13.12,8.58-4.46,8.54-8.78a8.08,8.08,0,0,0-8.35-8A8,8,0,0,0,156,297.16Z" transform="translate(-95.62 -238.33)"/><path d="M507,671.13c.59-9.61,1.11-19.22,1.77-28.83,1.68-24.74,4.11-49.45,5-74.21,1.33-37.7-4.3-74.47-15.16-110.74-5.31-17.75-7.83-36.51-15.54-53.44-9.83-21.57-17.71-43.89-29.43-64.79-14-25-36.75-37-60.73-48.09-15.07-7-30.28-13.9-46-19.34-32.47-11.27-66.11-17.72-100.26-21.32-10.24-1.08-20,1-29.79,4.53s-20.17,5.5-30.4,7.61c-18.51,3.82-34.2,13.57-50,23.05-5,3-9.7,6.53-14.86,9.18s-7.6,6.55-8.73,11.89c-.65,3.08-1.92,6-2.6,9.09-1.93,8.62,2.2,14.5,11,15.41,10.43,1.08,20.92,1.61,31.32,2.88,18,2.18,35.87,5,53.86,7.08,17.84,2,35.74,3.63,53.65,5,25.07,1.93,50.16,3.48,75.24,5.22a27.09,27.09,0,0,1,2.93.58c4.28.76,6.5,3.21,6.08,7.64-.4,4.26-3.33,6.67-8,6.3-11.45-.91-22.88-2.06-34.33-3q-28.37-2.42-56.73-4.7c-5.64-.46-11.35-.44-16.91-1.37-4.75-.79-7.26.82-8.67,5.13-4.65,14.21-9.41,28.38-14,42.6-6.83,21-14.52,41.75-18.19,63.69-3.87,23.1-8.67,46.05-12,69.22-2.35,16.28-2.59,32.86-4.42,49.23-2.12,19-5,37.89-7.46,56.84-1.21,9.22-2.37,18.45-3.56,27.67H144c2.65-18.25,5.18-36.52,8-54.74,1.83-11.81,4.5-23.49,6-35.33,2-15.67,3.53-31.41,4.84-47.16,3.48-41.6,11.37-82.21,25.18-121.73,6.07-17.37,10.4-35.34,15.5-53.05a32.48,32.48,0,0,0,.59-3.42c-8.12-1.22-15.92-2.7-23.78-3.52-18-1.86-36.14-3.12-54.14-5.23a56.1,56.1,0,0,1-17.56-5.1C96.75,336.1,92.58,323.06,97.9,311a19.51,19.51,0,0,0,1.94-6.14c.83-11.09,6.75-19.12,15.59-24.9C146,260,179,245.67,215.36,240.54c28.23-4,56.5-2.35,84.47,3.06,11.41,2.21,23,4.25,33.95,7.9,32.93,10.94,65.49,22.82,94.93,41.88,16.54,10.72,29.92,23.76,38.51,41.9,9.88,20.87,21.42,41,31.09,61.91,4.32,9.35,5.81,20,8.59,30.07,3.79,13.74,8,27.39,11.23,41.27,2.26,9.67,3.45,19.61,4.71,29.49,5.63,44.05,2.27,88.14.41,132.22-.57,13.64-1.49,27.26-2.25,40.89Z" transform="translate(-95.62 -238.33)"/><path d="M288.87,569c.3-2.08,0-4.39,1-5.91,2.74-4.35.57-6.58-2.77-9-19.79-14.46-40.3-27.72-62.59-38.09-2.69-1.25-5.55-2.7-7.5-4.83-1.63-1.78-3.28-5-2.73-7a6.09,6.09,0,0,1,8.31-4.24,130.56,130.56,0,0,1,16.83,7.37q20,10.79,39.51,22.25a52,52,0,0,1,8.89,7.19c5.86,5.45,12.27,7.43,20.16,4.8,2.84-.94,6.21-.11,9.25-.6,5.48-.87,11.29-1.21,16.27-3.37C376,519.07,418.4,500.19,460.91,481.6a18.37,18.37,0,0,1,9.19-1.23c2.09.25,5.16,2.15,5.58,3.85.51,2-.64,5.66-2.31,6.83a87,87,0,0,1-16,9c-32.65,13.7-65.46,27-98.13,40.71A169.49,169.49,0,0,0,341,550.18c-4.73,2.69-4.81,6.21-.15,9.05,3.08,1.89,6.66,3,10,4.34,10.07,4,14.15,14.4,9.14,24-1,1.9-3.09,3.37-4.95,4.63a27.6,27.6,0,0,1-5.47,2.38c-6.7,2.64-11.22,9.67-20.24,7.9-7.23-1.41-15-.06-22.43-.54-6.4-.4-14-9.41-15.87-18.21C290.1,578.85,289.59,573.87,288.87,569Z" transform="translate(-95.62 -238.33)"/><path d="M257.1,303.09a7.86,7.86,0,0,1,7.9,8.37c-.15,4.92-3.41,8.12-8.21,8.05-5-.07-7.86-3.06-7.83-8.27A7.87,7.87,0,0,1,257.1,303.09Z" transform="translate(-95.62 -238.33)"/><path d="M156,297.16a8,8,0,0,1,7.72-8.06,8.08,8.08,0,0,1,8.35,8c0,4.32-4.41,8.9-8.54,8.78C160,305.76,156,301.15,156,297.16Z" transform="translate(-95.62 -238.33)"/></svg>