<svg id="Layer_1" data-name="Layer 1" xmlns="http://www.w3.org/2000/svg" viewBox="0 0 488.07 246.3"><defs><style>.cls-1{fill:#3A5BFF;}</style></defs><path class="cls-1" d="M152.48,359.68c-.77,7.27-4.13,11.19-8.16,14.41-12.83,10.28-27.51,16.56-43.65,19.62a40.93,40.93,0,0,1-22.07-1.49C65.8,387.56,60.28,378.48,62.41,365c2.1-13.25,9.06-24.26,17-34.57C112.1,288,155,261.4,207.16,250.17c7.89-1.7,16.55-1.37,24.64-.3,11.15,1.49,15.45,9.2,13.07,20.35-3.58,16.71-11.29,31.72-20.44,45.78-17.07,26.21-35,51.84-52.65,77.7-1.45,2.12-3,4.18-3.59,7,2.86-3.07,5.74-6.13,8.58-9.22,24-26.09,48.09-52,71.8-78.34C270.35,289,291.65,264.35,313.24,240c3.41-3.85,7.11-7.46,10.82-11s8.11-3.71,11.94-.16a67.34,67.34,0,0,1,5.94,6.67c3.82,4.61,4,9.67,1.35,14.83-9.2,18.06-18.07,36.3-27.78,54.08-18.57,34-37.68,67.78-56.44,101.71-3.38,6.11-6.17,12.54-9.17,18.85-.39.82-.39,1.82.33,3.38,7.7-7.62,15.56-15.08,23.06-22.89q28-29.13,55.66-58.53C341.14,334,353,320.83,365.42,308.16c6.22-6.35,10.93-6.37,17.24-.2,4.14,4.06,8,8.9,10.26,14.15,1.31,3.06-.3,7.82-1.62,11.45-5.51,15.15-11.41,30.16-17.15,45.23-.27.71-.39,1.48-.92,3.57,9.38-3.77,17.82-7,26.15-10.54,15.17-6.43,30.22-13.12,45.41-19.51,18.66-7.85,38.09-11,58.12-7.4,13.09,2.32,24.16,9.27,33.73,18.28,4.3,4,7.75,9.06,11.18,13.92,1.32,1.86,1.51,4.51,2.22,6.81l-1,1.24c-4.33-1.28-9-1.92-12.94-4-14.64-7.64-30.18-11.17-46.33-8.24A207.68,207.68,0,0,0,454,383.25c-19.91,7.5-39.38,16.17-59.16,24-4.89,1.94-10.25,2.79-15.46,3.85-9.62,2-17.38-1.53-23.14-9.14a63.53,63.53,0,0,1-8.49-14c-1.74-4.27-1.78-9.23-2.65-14.38a68.18,68.18,0,0,0-5.24,4.58c-16.65,17.46-33,35.18-49.93,52.41-10.94,11.16-22.47,21.76-34,32.32a51.18,51.18,0,0,1-11.23,7.35c-8.68,4.45-16.48,2.06-22.17-6.35a6.18,6.18,0,0,0-.48-.88c-12.72-13.61-5.93-27.34.28-40.61,16-34.16,32.45-68.1,48.7-102.14a7.46,7.46,0,0,0,0-1.85c-2.94,2.58-5.61,4.64-7.93,7-32.56,33.36-65.21,66.63-97.53,100.22-10.25,10.66-19.47,22.3-29.44,33.23a39.44,39.44,0,0,1-10.5,8.22c-2.1,1.1-6.16,1-7.83-.35s-2.7-5.42-2-7.62c2.21-6.69,4.46-13.7,8.36-19.46,22.73-33.64,46.5-66.59,68.75-100.54,11.73-17.89,21.23-37.24,31.36-56.14,2.05-3.82,2.8-8.51,3.39-12.9.8-5.94-1.06-8.5-6.81-10.47-7.79-2.67-15.68-2.24-23.58-.38C179,263.59,163.17,273,147.48,282.81A175.29,175.29,0,0,0,90.9,339c-5.22,8.34-9.63,17-10.84,27.09-1.31,10.89,4,17.58,14.84,18.63,14,1.35,26.26-3,37.44-10.91,5-3.56,9.69-7.61,14.61-11.32C148.24,361.52,149.87,361,152.48,359.68Z" transform="translate(-61.96 -226.18)"/></svg>